<svg id="图层_2" data-name="图层 2" xmlns="http://www.w3.org/2000/svg" viewBox="0 0 2000 2000"><defs><style>.cls-1{fill:#979798;}.cls-2{fill:#f1c062;}</style></defs><path class="cls-1" d="M785.24,1000.11c-52.26,0-102.46-16.42-149.22-48.82-41-28.41-77.47-67.93-108.37-117.46-29.15-46.72-52-100.11-67.89-158.71A703.13,703.13,0,0,1,435.43,491c0-63.54,8.67-120.86,25.76-170.37s42.79-91.94,76.31-126c61.08-62,146.75-94.77,247.73-94.77S971.88,132.63,1033,194.63c33.52,34,59.2,76.41,76.31,126S1135,427.43,1135,491a703.13,703.13,0,0,1-24.33,184.14c-15.9,58.6-38.75,112-67.89,158.71-30.9,49.54-67.37,89.06-108.37,117.46C887.7,983.68,837.5,1000.11,785.24,1000.11Zm0-755.35c-62.18,0-110.8,17.35-144.51,51.57C600.65,337,580.33,402.49,580.33,491c0,97.58,25.61,194.6,70.25,266.16,20.11,32.24,43.61,58.19,68,75.05,22.05,15.28,44.49,23,66.7,23s44.65-7.75,66.7-23c24.34-16.86,47.84-42.82,68-75.05,44.65-71.57,70.25-168.58,70.25-266.16,0-88.48-20.32-154-60.4-194.65C896,262.1,847.42,244.75,785.24,244.75Z"/><path class="cls-2" d="M1478.36,1284c-108.39,0-196.57,88.18-196.57,196.57a195.52,195.52,0,0,0,38.54,116.77l274.8-274.8A195.53,195.53,0,0,0,1478.36,1284Z"/><path class="cls-2" d="M1649.9,1384.66l-267.42,267.42a195.35,195.35,0,0,0,95.87,25c108.39,0,196.57-88.18,196.57-196.57A195.35,195.35,0,0,0,1649.9,1384.66Z"/><path class="cls-2" d="M1737.95,1030.92H1218.76L959.17,1480.54l259.59,449.61h519.18l259.59-449.63Zm-64,645.18a276.57,276.57,0,1,1,81-195.56A274.76,274.76,0,0,1,1673.92,1676.1Z"/><path class="cls-1" d="M930.75,1699.86H291.47c-18.36,0-33.87-15.51-33.87-33.87V1489.12c0-83.47,32.79-162.22,92.32-221.76S488.21,1175,571.68,1175H981.36l81.11-140.49a459.4,459.4,0,0,0-63.67-4.41H571.68a453.78,453.78,0,0,0-178.41,36.27A462.74,462.74,0,0,0,149,1310.71a453.79,453.79,0,0,0-36.27,178.41V1666c0,98.57,80.2,178.77,178.77,178.77h722.94Z"/></svg>